<?xml version="1.0" encoding="utf-8"?>
<!-- Generator: Adobe Illustrator 26.0.1, SVG Export Plug-In . SVG Version: 6.00 Build 0)  -->
<svg version="1.1" id="Layer_1" xmlns="http://www.w3.org/2000/svg" xmlns:xlink="http://www.w3.org/1999/xlink" x="0px" y="0px"
	 viewBox="0 0 403.1 429.2" style="enable-background:new 0 0 403.1 429.2;" xml:space="preserve">
<style type="text/css">
	.st0{clip-path:url(#SVGID_00000152250839326847489180000008499688733970664376_);}
	.st1{fill-rule:evenodd;clip-rule:evenodd;fill:#102A83;}
	.st2{fill-rule:evenodd;clip-rule:evenodd;fill:#FFFFFF;}
</style>
<g id="surface1">
	<g>
		<defs>
			<rect id="SVGID_1_" width="403.1" height="429.2"/>
		</defs>
		<clipPath id="SVGID_00000101808052657426783510000001068300918985498762_">
			<use xlink:href="#SVGID_1_"  style="overflow:visible;"/>
		</clipPath>
		<g style="clip-path:url(#SVGID_00000101808052657426783510000001068300918985498762_);">
			<path class="st1" d="M201.59,429.12c84.89,0,159.52-44.76,201.54-111.92l-37.98-25.98c17.77-29.06,28.03-63.19,28.03-99.68
				c0-105.64-85.95-191.59-191.59-191.59C95.95-0.05,10,85.9,10,191.55c0,36.45,10.23,70.54,27.97,99.58L0.04,317.18
				C42.07,384.35,116.69,429.12,201.59,429.12z"/>
		</g>
	</g>
	<path class="st2" d="M201.59,6.5C99.56,6.5,16.55,89.51,16.55,191.55c0,102.03,83.01,185.04,185.04,185.04
		c102.03,0,185.04-83.01,185.04-185.04C386.63,89.51,303.62,6.5,201.59,6.5z"/>
	<path class="st1" d="M201.59,317.93c-69.69,0-126.39-56.7-126.39-126.39c0-69.7,56.7-126.39,126.39-126.39
		c69.7,0,126.39,56.7,126.39,126.39C327.98,261.23,271.29,317.93,201.59,317.93z"/>
	<path class="st2" d="M201.59,425.46c82.33,0,154.85-42.76,196.55-107.22l-34.94-23.9c-34.05,53.34-93.77,88.8-161.61,88.8
		c-67.88,0-127.63-35.49-161.67-88.89L5.03,318.21C46.72,382.69,119.25,425.46,201.59,425.46z"/>
	<path class="st2" d="M250.73,162.83c7.33-6.35,24.68-7.18,32.99-2.2c-6.48-15.23-23.46-15.89-35.19-5.87
		c1.43-13.03,12.83-16.29,19.06-16.38c-10.71-5.21-20.53,0.73-23.21,7.33c0.04,0,0.08,0.01,0,0c-0.08-0.01-0.04-0.01,0,0
		c-0.09-6.36-4.56-14.71-4.66-14.89v-0.01c0,0,0-0.01-0.01-0.01c0,0-0.01,0.01-0.01,0.01v0.01c-0.1,0.18-4.57,8.52-4.66,14.89
		c0.04,0,0.08-0.01,0,0c-0.08,0-0.04,0,0,0c-2.69-6.6-12.5-12.54-23.22-7.33c6.23,0.09,17.64,3.35,19.07,16.38
		c-11.73-10.02-28.71-9.36-35.19,5.87c8.3-4.98,25.66-4.16,32.99,2.2c-16.37-1.22-37.51,7.82-36.16,25.42
		c6.84-8.8,25.54-16.78,33.72-14.91c-6.15,5.46-15.93,18.91-15.89,34.21c10.96-3.09,22.77-21.82,25.48-30.97l-1.22,64.27l-4.21,5.8
		l9.3,5.61v0.01l0.01,0l0.01,0v-0.01l9.3-5.61l-4.21-5.8l-1.22-64.27c2.71,9.15,14.52,27.88,25.47,30.97
		c0.04-15.31-9.73-28.75-15.88-34.21c8.18-1.87,26.88,6.11,33.72,14.91C288.24,170.65,267.11,161.61,250.73,162.83z"/>
	<path class="st2" d="M302.05,158.23c-14-42.09-53.73-72.55-100.46-72.55c-58.37,0-105.86,47.49-105.86,105.87
		c0,58.37,47.49,105.86,105.86,105.86c46.73,0,86.47-30.45,100.46-72.55c-12.16,23.72-36.84,40-65.27,40
		c-40.43,0-73.31-32.89-73.31-73.31c0-40.43,32.88-73.31,73.31-73.31C265.21,118.23,289.9,134.51,302.05,158.23z"/>
	<path class="st1" d="M25.86,174.82v15.9c0,1.2,0.05,1.97,0.16,2.3c0.11,0.33,0.32,0.61,0.66,0.82c0.34,0.21,0.88,0.32,1.62,0.32
		h0.45v0.5H18.49v-0.5h0.52c0.83,0,1.43-0.1,1.78-0.29s0.59-0.46,0.72-0.79s0.19-1.12,0.19-2.36v-10.04c0-0.91-0.04-1.48-0.13-1.71
		c-0.08-0.23-0.25-0.42-0.48-0.57c-0.24-0.16-0.51-0.24-0.82-0.24c-0.49,0-1.09,0.16-1.79,0.46l-0.26-0.5l7.18-3.3H25.86z"/>
	<path class="st1" d="M38.11,193.23c1.93-1.13,3.39-2.64,4.36-4.52c0.98-1.87,1.47-3.83,1.47-5.88c0-1.58-0.3-2.98-0.9-4.22
		c-0.6-1.23-1.41-2.17-2.41-2.82c-1.01-0.65-2.08-0.98-3.21-0.98c-1.06,0-2.08,0.29-3.06,0.88s-1.74,1.42-2.27,2.48
		s-0.79,2.24-0.79,3.52c0,1.84,0.49,3.29,1.46,4.36c0.98,1.06,2.2,1.59,3.66,1.59c0.46,0,0.89-0.06,1.31-0.18
		c0.41-0.12,0.91-0.33,1.51-0.64c-0.26,1.36-0.71,2.56-1.35,3.6c-0.64,1.04-1.52,1.92-2.61,2.62c-1.1,0.71-2.44,1.24-4.03,1.6v0.41
		C33.89,194.98,36.18,194.37,38.11,193.23z M38,186.09c-0.69,0-1.24-0.32-1.64-0.98c-0.62-1.01-0.93-2.85-0.93-5.51
		c0-1.6,0.18-2.68,0.55-3.25c0.27-0.41,0.63-0.62,1.11-0.62c0.38,0,0.68,0.11,0.91,0.32c0.45,0.39,0.78,1.01,1.01,1.85
		c0.39,1.51,0.59,3.14,0.59,4.89c0,0.82-0.04,1.77-0.14,2.84C38.85,185.94,38.36,186.09,38,186.09z"/>
	<path class="st1" d="M48.88,175.23h9.16l-1.46,3.71h-7.7l-0.68,1.93c3.3,0.12,5.84,0.95,7.61,2.46c1.46,1.25,2.2,2.81,2.2,4.67
		c0,1.2-0.34,2.36-1.02,3.5c-0.68,1.14-1.64,2.02-2.87,2.64c-1.23,0.62-2.57,0.93-4.04,0.93c-1.58,0-2.79-0.29-3.64-0.89
		c-0.59-0.43-0.89-0.9-0.89-1.44c0-0.41,0.16-0.77,0.46-1.09s0.67-0.48,1.08-0.48c0.37,0,0.75,0.08,1.13,0.23
		c0.38,0.15,1.04,0.55,1.96,1.2c0.58,0.4,1.08,0.68,1.5,0.83c0.3,0.11,0.63,0.17,1,0.17c0.78,0,1.45-0.29,1.99-0.86
		c0.55-0.57,0.82-1.25,0.82-2.06c0-1.68-0.84-3.04-2.53-4.09c-1.69-1.05-3.82-1.57-6.39-1.57c-0.26,0-0.65,0-1.16,0.01L48.88,175.23
		z"/>
	<path class="st1" d="M63.64,195.07l5.28-16.04h-4.02c-1.57,0-2.76,0.21-3.55,0.62c-0.55,0.29-1.01,0.83-1.38,1.63h-0.55l1.41-6.05
		h11.6l-6.53,19.84H63.64z"/>
	<path class="st1" d="M331.93,180.34v0.59c0,0.06,0.02,0.15,0.05,0.25c0.04,0.11,0.06,0.18,0.06,0.23
		c2.61,4.39,3.92,8.78,3.92,13.18c0,0.32,0.12,0.48,0.38,0.48c0.66,0,1-1.2,1-3.6c0-3.06-0.61-6.23-1.81-9.5
		c-1.14-3.12-1.95-4.68-2.41-4.68c-0.23,0-0.34,0.16-0.34,0.49l-0.73,2.56H331.93z"/>
	<path class="st1" d="M344.75,184.41c0.75,2.14,1.12,4.52,1.12,7.12c0,2.3-0.29,3.45-0.86,3.45c-0.28,0-0.43-0.11-0.46-0.34
		l-0.09-0.71c-0.03-0.17-0.05-0.38-0.05-0.62c-0.11-3.25-1.18-6.82-3.23-10.71c-0.41-0.79-0.62-1.35-0.62-1.67
		c0-0.12,0.02-0.3,0.07-0.54c0.05-0.23,0.07-0.42,0.07-0.55s0.04-0.32,0.12-0.57c0.07-0.25,0.11-0.45,0.11-0.59
		c0.11-0.73,0.27-1.09,0.48-1.09c0.11,0,0.42,0.38,0.94,1.15c0.37,0.55,0.77,1.02,1.21,1.4c0.21,0.24,0.61,0.36,1.19,0.36
		c1.48,0,2.6-0.83,3.34-2.49c0.24-0.79,0.48-1.18,0.71-1.18c0.15,0,0.23,0.09,0.23,0.26v0.46c0,0.07-0.02,0.2-0.06,0.37
		s-0.05,0.3-0.05,0.37c0,1.04,0.71,1.56,2.15,1.56c0.69,0,1.17-0.51,1.45-1.54c0-0.56,0.12-0.85,0.34-0.85
		c0.32,0,0.48,0.16,0.48,0.48c0,3.84-1.07,5.75-3.23,5.75c-1,0-1.84-0.4-2.5-1.21C347.35,183.25,346.39,183.89,344.75,184.41z"/>
	<path class="st1" d="M358.53,181.23c-1.42-2.96-2.22-4.45-2.4-4.45c-0.23,0-0.41,0.26-0.53,0.78l-0.76,3.04
		c3.09,4.34,5.16,8.64,6.21,12.89c0.23,0.92,0.49,1.39,0.78,1.39l0.23-0.48c0.16-0.5,0.29-0.97,0.41-1.42
		c1.5-5.61,3.4-9.88,5.71-12.81v-1.14c0-0.26-0.02-0.56-0.07-0.89c-0.09-0.67-0.15-1.18-0.18-1.52l-0.14-0.25
		c-0.32,0-1.12,1.52-2.41,4.55c-1.65,3.92-2.75,6.86-3.3,8.8C361.29,187.35,360.1,184.52,358.53,181.23z"/>
	<path class="st1" d="M376.85,189.73c0.55-1.95,1.65-4.88,3.3-8.8c1.29-3.04,2.09-4.55,2.41-4.55l0.14,0.25
		c0.03,0.34,0.09,0.84,0.18,1.52c0.04,0.34,0.07,0.64,0.07,0.89v1.14c-2.3,2.93-4.21,7.2-5.7,12.81c-0.12,0.45-0.26,0.92-0.41,1.42
		l-0.23,0.48c-0.29,0-0.55-0.47-0.78-1.39c-1.05-4.25-3.12-8.55-6.21-12.89l0.75-3.04c0.12-0.52,0.3-0.78,0.53-0.78
		c0.18,0,0.98,1.48,2.41,4.45C374.87,184.52,376.05,187.35,376.85,189.73z"/>
	<path class="st1" d="M179.14,355.17l13,1.47l-0.54,4.74l-18.46-2.09l2.95-26.15l5.46,0.61L179.14,355.17z"/>
	<path class="st1" d="M151.49,348.53l9.36,2.59l0.18,5.68l5.76,1.59l-1.94-27.84l-6.11-1.68l-16.05,22.87l5.58,1.54L151.49,348.53z
		 M160.13,335.4l0.07,0.01l0.38,10.91l-6.46-1.79L160.13,335.4z"/>
	<path class="st1" d="M122.22,336.82l11.54,6.17l-2.25,4.2l-16.39-8.76l12.41-23.21l4.85,2.59L122.22,336.82z"/>
	<path class="st1" d="M98.98,320.41l7.75,5.87l-1.93,5.35l4.76,3.61l8.5-26.58l-5.06-3.83l-23.37,15.32l4.62,3.5L98.98,320.41z
		 M111.87,311.41l0.06,0.05l-3.68,10.27l-5.35-4.05L111.87,311.41z"/>
	<path class="st1" d="M42.48,237.34l3.65,12.57l-4.58,1.33l-5.18-17.85l25.27-7.34l1.53,5.28L42.48,237.34z"/>
	<path class="st1" d="M37.98,209.25l1.22,9.64l-5.17,2.35l0.75,5.92l24.95-12.49l-0.79-6.29l-27.29-6.02l0.73,5.75L37.98,209.25z
		 M53.43,212.18l0.01,0.07l-9.92,4.54l-0.84-6.65L53.43,212.18z"/>
	<path class="st1" d="M80.04,303.9l9.13,9.38l-3.41,3.32l-12.97-13.31l18.85-18.36l3.84,3.93L80.04,303.9z"/>
	<path class="st1" d="M238.42,352.05l9.39-2.51l3.03,4.81l5.77-1.55l-15.76-23.03l-6.12,1.64l-2.26,27.85l5.59-1.5L238.42,352.05z
		 M239.23,336.36l0.07-0.02l5.84,9.21l-6.48,1.74L239.23,336.36z"/>
	<path class="st1" d="M60.66,263.8l-10.29,5.78l-2.69-4.8l22.95-12.88l2.69,4.79l-8.69,4.88l5.02,8.95l8.7-4.88l2.69,4.8
		l-22.95,12.88l-2.69-4.79l10.29-5.78L60.66,263.8z"/>
	<path class="st1" d="M67.3,296.44l-3.43-4.3l20.57-16.43l3.43,4.3L67.3,296.44z"/>
	<path class="st1" d="M319.69,314.2l-3.99,3.78l-18.1-19.1l3.99-3.79L319.69,314.2z"/>
	<path class="st1" d="M277.75,334.04c2.78,6.35,0.14,10.74-5.95,13.4c-2.21,0.96-5.74,1.87-8.93,0.42
		c-1.96-0.91-3.31-2.63-4.44-5.02l-6.98-15.99l5.14-2.25l6.84,15.65c1.47,3.36,4.06,3.99,6.41,2.96c3.46-1.51,4.14-3.8,2.86-6.73
		l-6.95-15.88l5.14-2.25L277.75,334.04z"/>
	<path class="st1" d="M290.88,336.51l9.39-6.46c7.16-4.92,4.39-12.89,1.19-17.54c-2.83-4.11-8.61-9.29-15.92-4.26l-9.57,6.59
		L290.88,336.51z M282.98,315.52l4.35-2.99c1.93-1.33,5.34-2.92,9.74,3.48c2.45,3.57,3.77,8.13,0.09,10.66l-4.41,3.04L282.98,315.52
		z"/>
	<path class="st1" d="M207.89,353.44c0.15,1.46,1.11,4.18,5.89,3.8c2.59-0.21,5.43-1.07,5.21-3.84c-0.16-2.04-2.18-2.43-5.01-2.87
		l-2.87-0.43c-4.32-0.64-8.48-1.27-8.95-7.04c-0.23-2.93,0.92-8.2,9.43-8.88c8.04-0.64,10.62,4.45,10.91,7.66l-5.26,0.42
		c-0.24-1.16-0.9-3.9-5.69-3.51c-2.08,0.17-4.5,1.13-4.32,3.51c0.16,2.05,1.88,2.35,3,2.52l6.52,1.06c3.65,0.59,7.05,1.79,7.43,6.5
		c0.64,7.89-7.35,9.23-9.65,9.42c-9.57,0.77-11.66-4.61-11.92-7.87L207.89,353.44z"/>
	<path class="st1" d="M346.51,271.09l6.32-11.46l4.18,2.3l-8.97,16.27l-23.05-12.7l2.65-4.81L346.51,271.09z"/>
	<path class="st1" d="M357.39,232.95c6.53,2.33,7.93,7.26,5.7,13.51c-0.81,2.28-2.57,5.46-5.8,6.8c-2,0.8-4.19,0.61-6.7-0.21
		l-16.44-5.85l1.88-5.29l16.1,5.73c3.45,1.23,5.68-0.23,6.54-2.65c1.27-3.55,0.06-5.62-2.95-6.69l-16.33-5.82l1.88-5.28
		L357.39,232.95z"/>
	<path class="st1" d="M326.14,279.23c-1.51-0.62-4.38-1.79-7.17,1.8c-1.62,2.08-2.62,6.22,3.24,10.8c3.73,2.91,8.23,4.05,11.09,0.38
		c1.87-2.39,1.82-5.13-0.32-7.64l3.38-4.33c3.83,4.38,4.68,9.79,0.62,14.99c-4.31,5.52-11.12,6.57-18.29,0.97
		c-7.25-5.66-7.68-12.73-3.51-18.08c4.85-6.21,11.09-5.39,14.33-3.23L326.14,279.23z"/>
	<path class="st1" d="M347.49,219.64l0.95-6.23c0.38-2.46,1.26-3.89,3.4-3.56c2.07,0.31,2.64,2.14,2.32,4.28l-0.97,6.38
		L347.49,219.64z M368.23,228.12l1.67-11.02c0.81-5.32,0.12-6.88-1.11-8.58c-1.13-1.58-2.96-2.75-5.02-3.06
		c-2.57-0.39-5.24,0.06-6.92,3.07c-0.38-1.17-1.11-3.43-4.84-4c-2.68-0.41-6.92,0.62-7.89,7l-1.92,12.65L368.23,228.12z
		 M357.57,221.16l1.05-6.92c0.3-1.96,1.46-3.78,3.75-3.44c2.64,0.4,3.57,2.1,3.17,4.75l-1.01,6.67L357.57,221.16z"/>
	<path class="st1" d="M357.95,161.46l-0.8,0.99c-0.5,0.61-1.23,1.2-2.2,1.77l-2.63-9.56h0l-5.84-21.2c-0.3-1.07-0.36-1.79-0.2-2.17
		c0.2-0.42,0.82-0.77,1.85-1.05l0.23-0.06l2.75-0.8l2.46-0.79l9.83-2.94l-4.48-3.44l-1.19,0.35l-0.09,0.05l-20.7,6.38
		c-1,0.3-1.82,0.88-2.48,1.74c-0.75,0.97-0.99,1.9-0.74,2.8l0.88,3.21l0.05-0.01l5.5,19.95l-0.05,0.01l4.05,14.68
		c9.24-2.54,14.68-4.25,16.32-5.14c1.46-0.79,2.82-1.64,4.09-2.54l-5.72-3.48L357.95,161.46L357.95,161.46z"/>
	<path class="st1" d="M367.89,151.03l-2.57,4.99l4.99,2.58l2.54-4.95L367.89,151.03z"/>
	<path class="st1" d="M339.65,122.64c0.7-0.39,1.28-0.76,1.75-1.11l0.76-0.57c0.27-0.21,0.52-0.42,0.75-0.64l0.2-0.18
		c0.64-0.56,1.43-1.41,2.36-2.55c2.67-3.27,3.72-5.43,3.14-6.48c-0.32-0.6-1.47-0.91-3.44-0.92c-1.76-0.02-2.84,0.08-3.25,0.3
		c-0.6,0.32-0.81,0.66-0.62,1c0.1,0.17,0.25,0.31,0.45,0.4l0.88,0.39c0.07,0.13,0.06,0.3-0.02,0.51l-0.19,0.49l-0.17,0.32l-0.3,0.5
		l-0.4,0.61l-0.89,1.23c-0.46,0.6-1.02,1.18-1.66,1.74c-0.66-0.59-1.41-1.55-2.28-2.87c-0.27-0.42-0.49-0.79-0.66-1.1
		c-0.83-1.53-1.33-2.9-1.52-4.12l-0.1-0.65l-0.06-0.24l-0.07-0.3c-0.1-0.19-0.36-0.18-0.79,0.02c-0.35,0.16-0.69,0.33-1.02,0.53
		l-3.29,1.87c-0.43,0.23-1.04,0.58-1.85,1.05l-1.98,1.27c-0.65,0.41-1.02,0.9-1.13,1.46c-0.13,0.63,0.02,1.35,0.46,2.16l3.64,6.81
		c0.78,1.46,1.63,2.35,2.56,2.67c0.93,0.32,2.68-0.24,5.24-1.66L339.65,122.64z"/>
	<path class="st1" d="M300.13,108.16l5.61,0.2l0.2-5.56l-5.61-0.26L300.13,108.16z"/>
	<path class="st1" d="M328.98,106.61c0.81-0.46,1.51-0.95,2.09-1.45c0.61-0.52,0.74-1.34,0.39-2.47c-0.27-0.87-0.79-1.75-1.57-2.67
		l0.06-0.08l-0.15,0.07l-2.56-3.3c-0.65-1.08-0.81-1.76-0.48-2.04c0.35-0.3,0.87-0.46,1.56-0.5c0.32-0.01,0.85,0.01,1.55,0.09
		l0.48,0.07c1.93,0.41,3.31,1.09,4.14,2.05c0.37,0.43,0.61,0.97,0.71,1.62c0.1,0.64,0.22,1.04,0.36,1.21
		c0.45,0.53,1.18,0.36,2.18-0.5c0.85-0.73,1.56-1.45,2.13-2.14l0.09-0.11c0.67-0.8,1.02-1.5,1.05-2.07
		c0.04-0.65-0.28-1.36-0.95-2.14c-0.71-0.84-2.32-1.45-4.81-1.82c-2.06-0.31-4.44-0.36-7.14-0.13c-2.45,0.2-4.38,0.54-5.79,1
		l-0.14,0.05l-1.04,0.47c-0.24,0.11-0.67,0.43-1.29,0.95c-0.54,0.46-0.61,1.38-0.21,2.76c0.22,0.79,0.88,1.98,1.96,3.58
		c1.04,1.56,1.65,2.68,1.82,3.35l-0.61-0.25l-0.48-0.22c-1.1-0.5-2.25-1.16-3.47-1.99c-0.48-0.32-1-0.73-1.57-1.25
		c-0.53-0.48-0.99-0.94-1.37-1.38c-0.89-1.04-1.54-2.21-1.95-3.5c-0.46-1.44-0.51-2.77-0.16-3.98l0.13-0.38l0.33-0.69l0.55-0.77
		c0.17-0.23,0.48-0.54,0.94-0.94l0.47-0.4l0.83-0.6l1.77-1.3c0.25-0.18,0.41-0.37,0.46-0.57c0.06-0.2-0.07-0.48-0.38-0.85
		c-0.38-0.43-1.57-0.11-3.6,0.98l-1.95,1.04l-2.04,1.29c-0.6,0.41-1.69,1.29-3.27,2.65c-1.55,1.32-2.27,3.28-2.17,5.84
		c0.09,2.24,1,4.36,2.71,6.36c1.68,1.97,3.34,3.41,4.95,4.34c1.5,0.84,3.15,1.48,4.94,1.91l0.25,0.05c0.99,0.23,1.77,0.38,2.36,0.47
		c0.72,0.1,1.32,0.16,1.8,0.17c1.32,0.03,2.67-0.27,4.04-0.9C327.76,107.26,328.44,106.91,328.98,106.61z"/>
	<path class="st1" d="M306.27,114.77l5.61,0.2l0.2-5.56l-5.61-0.26L306.27,114.77z"/>
	<path class="st1" d="M301.48,77.75l0.43-0.5l13.87-18.4l-7.14-0.19l-16.96,23.23c0.9-0.04,1.82-0.13,2.77-0.27
		c0.44-0.07,1.03-0.18,1.77-0.33c1.12-0.34,2.39-1.1,3.81-2.29l1.01-0.85L301.48,77.75z"/>
	<path class="st1" d="M284.46,60.08c-0.25,0.46-0.47,0.77-0.64,0.95c-0.1,0.14-0.26,0.31-0.48,0.49l-4.25-3.71
		c0.71-0.16,1.47-0.48,2.27-0.99c0.84-0.54,1.42-1.11,1.75-1.71l0.21-0.41l0.16,0.37c0.53,1.22,0.85,2.12,0.97,2.71
		C284.7,58.89,284.7,59.66,284.46,60.08z M276.65,55.31c-0.73-1.17-0.88-2.15-0.44-2.95c0.26-0.47,0.74-0.76,1.45-0.87
		c0.65-0.1,1.22-0.01,1.7,0.25c0.36,0.21,0.65,0.52,0.85,0.96s0.21,0.82,0.02,1.18c-0.18,0.32-0.73,0.63-1.67,0.93
		C278.04,54.98,277.4,55.15,276.65,55.31z M299.35,55.68c0-2.2,0.7-4.56,2.09-7.07l-6.8,1.13l-5.11,13.06l-1.8-1l0.41-1.19
		c0.39-1.11,0.47-2.15,0.23-3.11l-1.57-6.55l-0.71-2.64c-0.29-1.08-0.67-2.03-1.14-2.86c-0.55-0.96-1.14-1.62-1.77-1.97
		c-0.64-0.36-1.71-0.06-3.21,0.88c-1.36,0.87-2.16,1.51-2.4,1.93c-0.23,0.42-0.29,0.67-0.18,0.75c0.12,0.06,0.42,0.13,0.91,0.21
		s0.82,0.14,0.99,0.2c0.23,0.13,0.37,0.22,0.4,0.27c0.11,0.08,0.18,0.2,0.22,0.36c-1.03-0.19-2.2,0.02-3.5,0.64
		c-1.31,0.61-2.22,1.37-2.73,2.28c-0.66,1.21-0.91,2.07-0.74,2.62l-5.21-2.89l0.04-0.09l-1.2-0.55l-4.01-2.23l-0.18,0.32l-5.25-2.39
		l0.09-0.27l-11.52-3.86l-0.02,0.07l-10.73-2.82l0.02-0.11c-2.24-0.31-3.56-0.56-3.96-0.75c-0.66-0.31-0.91-0.96-0.77-1.95
		l0.76-5.24l0.17-0.08l-0.16-0.02l0.72-5.73l0.15-0.05l-0.14-0.02l0.64-5l-4.89,2.77l-0.33,4.48l-0.26,2.47l-0.09,0.51l-0.04,0.28
		c-0.09,0.67-0.27,1.38-0.51,2.11c-0.7,2.09-1.88,3.84-3.54,5.27l0.16-0.46l0.12-0.61l0.26-1.73c0.11-0.7,0.08-1.71-0.09-3.02
		l-0.03-0.25c-0.29-2.23-1.05-4.63-2.3-7.17l-0.11-0.21c-0.34-0.75-0.87-1.7-1.57-2.85c-0.89-1.46-1.5-2.21-1.84-2.25
		c-0.3-0.04-1.01,0.68-2.12,2.17c-1.11,1.48-1.69,2.45-1.75,2.89c-0.06,0.45,0.05,0.94,0.33,1.46l1.01,1.91l-0.07,0.2l0.13-0.08
		l0.55,1.05c0.51,0.97,0.9,1.55,1.16,1.73c0.15,0.02,0.38-0.18,0.71-0.59l0.61-0.77l0.51,1l0.48,1.05c0.2,0.43,0.45,1.18,0.75,2.24
		l0.09,0.34l0.37,1.71l0.23,1.26l0.12,0.99l0.05,0.96c-2.11,0.75-3.87,1.01-5.27,0.77l-0.79-0.12l-0.44-0.06
		c-0.14-0.07-0.23-0.1-0.29-0.12l-0.92-0.23c-0.16-0.02-0.26,0.12-0.3,0.44c-0.05,0.34,0.05,1.27,0.3,2.82
		c0.3,1.79,0.63,3.25,1,4.37c0.51,1.48,1.34,2.31,2.48,2.46c1.15,0.15,2.58-0.27,4.3-1.29c1.51-0.9,2.79-2.16,3.84-3.77l0.01,0.67
		l0.02,0.29c0.06,1.11,0.25,2.04,0.57,2.79c0.41,0.97,1.04,1.64,1.89,2.01l-0.06,0.16l0.15-0.09c0.34,0.15,0.73,0.27,1.17,0.34
		l1.64,0.28l2.23,0.28l11,2.9v0l8.64,2.89l-0.06,0.12l9.07,4.14c4.32,2.28,6.88,3.39,7.66,3.33l2.32-0.43l0.84,0.96
		c0.81,1.82,2.19,3.45,4.15,4.92c0.55,0.41,1.05,0.74,1.49,0.99c1.53,0.85,2.68,1.29,3.46,1.32l6.95,3.85l2.47-4.04l0.5-1.02
		l0.68-1.43l6.57-13.14L299.35,55.68z"/>
	<path class="st1" d="M206.22,42.2l-1.83-16.71l1.31-1.22c-1.41-2.11-2.17-4.3-2.27-6.58l-5.98,5.09l3.88,19.59
		c-2.23,1.93-4.58,2.95-7.04,3.05c-1.4,0.06-2.69-0.38-3.87-1.32c-1.23-0.96-1.85-1.93-1.85-2.89v-1.43c0-0.33,0.05-0.75,0.16-1.27
		c0.17-0.77,0.25-1.38,0.23-1.81c-0.03-0.7-0.38-1.03-1.05-1c-0.41,0.02-1,0.88-1.76,2.59c-0.52,1.19-0.92,2.38-1.19,3.57
		c-0.14,0.57-0.25,1.23-0.34,2l-0.04,1.48l0.06,2.36c0.05,1.83,1.23,3.77,3.52,5.82c2.3,2.06,4.56,3.04,6.79,2.94
		c2.24-0.1,3.93-0.38,5.06-0.84l0.19,0.13l-0.07-0.18c2.26-0.93,3.91-2.55,4.97-4.84c0.92-1.98,1.34-3.73,1.26-5.25L206.22,42.2z"/>
	<path class="st1" d="M168.11,44.81l-0.05-0.59l-0.13-0.65l-6.14-22.21l-4.5,5.55l8.09,27.61c0.52-0.74,1-1.52,1.47-2.36
		c0.21-0.39,0.48-0.93,0.82-1.61c0.42-1.1,0.58-2.57,0.5-4.41L168.11,44.81z"/>
	<path class="st1" d="M68.29,158.8l2.93,4.8l4.78-2.97l-2.98-4.77L68.29,158.8z"/>
	<path class="st1" d="M65.44,145.56l-0.1-0.24c-0.36-0.95-0.67-1.68-0.93-2.21c-0.32-0.66-0.61-1.19-0.87-1.59
		c-0.72-1.11-1.72-2.06-3-2.84c-0.75-0.46-1.4-0.83-1.96-1.11c-0.84-0.41-1.63-0.72-2.37-0.92c-0.77-0.21-1.53,0.14-2.27,1.06
		c-0.57,0.7-1.01,1.63-1.33,2.79l-0.11-0.01l0.09,0.07l-1.3,3.96c-0.52,1.15-0.99,1.66-1.4,1.55c-0.44-0.12-0.86-0.46-1.26-1.01
		c-0.19-0.26-0.45-0.7-0.77-1.34l-0.21-0.44c-0.77-1.83-0.99-3.36-0.65-4.59c0.15-0.55,0.47-1.05,0.96-1.49
		c0.49-0.44,0.77-0.77,0.82-0.97c0.18-0.67-0.36-1.18-1.64-1.54c-1.08-0.3-2.07-0.48-2.96-0.57l-0.14-0.02
		c-1.04-0.11-1.81-0.02-2.3,0.28c-0.56,0.33-0.98,1-1.25,1.98c-0.29,1.05,0.1,2.73,1.17,5c0.89,1.88,2.18,3.88,3.86,5.99
		c1.53,1.92,2.87,3.33,4.04,4.23l0.12,0.09l0.98,0.6c0.23,0.14,0.73,0.32,1.52,0.54c0.68,0.19,1.49-0.27,2.42-1.36
		c0.54-0.62,1.16-1.84,1.88-3.62c0.71-1.73,1.3-2.86,1.77-3.39l0.14,0.64l0.08,0.52c0.2,1.19,0.3,2.52,0.3,3.99
		c0.01,0.57-0.04,1.24-0.16,2c-0.1,0.71-0.23,1.34-0.38,1.91c-0.36,1.32-0.97,2.52-1.82,3.57c-0.93,1.18-2,1.97-3.21,2.36l-0.38,0.1
		l-0.76,0.11l-0.95-0.04c-0.29-0.01-0.72-0.1-1.3-0.25l-0.6-0.16l-0.96-0.35l-2.06-0.73c-0.29-0.11-0.53-0.13-0.73-0.07
		s-0.36,0.33-0.49,0.79c-0.15,0.55,0.79,1.37,2.82,2.44l1.96,1.04l2.21,0.96c0.68,0.27,2.02,0.68,4.03,1.23
		c1.97,0.54,3.99,0.05,6.06-1.47c1.81-1.33,3.06-3.27,3.77-5.8c0.69-2.5,0.96-4.68,0.82-6.53
		C66.47,149.01,66.08,147.29,65.44,145.56z"/>
	<path class="st1" d="M70.34,150.01l2.92,4.8l4.77-2.97l-2.97-4.77L70.34,150.01z"/>
	<path class="st1" d="M72.32,129.16c0.73-1.49,0.95-2.7,0.66-3.64c-0.29-0.95-1.76-2.03-4.41-3.27l-3.63-1.7
		c-0.73-0.34-1.37-0.59-1.92-0.77l-0.91-0.28c-0.32-0.1-0.64-0.18-0.95-0.23l-0.26-0.06c-0.83-0.19-1.98-0.33-3.46-0.41
		c-4.22-0.25-6.59,0.18-7.11,1.26c-0.29,0.62,0.14,1.72,1.29,3.33c1.02,1.43,1.75,2.26,2.17,2.46c0.62,0.3,1.01,0.27,1.18-0.08
		c0.09-0.18,0.11-0.38,0.06-0.59l-0.2-0.94c0.07-0.13,0.21-0.23,0.43-0.29l0.51-0.13l0.36-0.05l0.58-0.06l0.73-0.03l1.52-0.01
		c0.76,0.02,1.55,0.13,2.38,0.32c-0.09,0.88-0.41,2.05-0.98,3.53c-0.18,0.46-0.35,0.86-0.5,1.19c-0.75,1.57-1.56,2.78-2.44,3.65
		l-0.47,0.46l-0.16,0.2l-0.2,0.23c-0.09,0.2,0.07,0.4,0.48,0.63c0.34,0.19,0.68,0.36,1.02,0.51l3.45,1.57
		c0.43,0.21,1.08,0.5,1.93,0.88l2.2,0.85c0.71,0.29,1.32,0.3,1.84,0.06c0.59-0.27,1.08-0.82,1.48-1.65L72.32,129.16z"/>
	<path class="st1" d="M70.55,106.44l-0.49,0.81c-0.35,0.57-0.91,1.07-1.7,1.52c-0.78,0.44-1.49,0.64-2.14,0.59l-0.41-0.06
		l-0.48-0.21c-0.87-0.53-0.99-1.3-0.37-2.34c0.34-0.56,1.2-0.91,2.57-1.04c1.13-0.11,2.21-0.02,3.23,0.27
		C70.65,106.2,70.57,106.36,70.55,106.44z M155.93,46.95l-1-2.3l-1.86-3.9l0.05-0.04l-3.09-6.88l0.61-1.5
		c-0.94-0.8-1.74-1.7-2.41-2.68s-1.26-2.12-1.77-3.41l-3.4,5.98l5.72,10.21l-0.09,0.04l0.14,0.03l1.1,1.94l-14.14,5.64l-0.08-0.16
		l-2.26,1.1l-1.91,0.76l0.06,0.14l-5.23,2.54c-0.59-0.82-1.16-1.52-1.7-2.09c-0.88-0.91-2.13-1.98-3.75-3.22l-1.5,5.95
		c1.5,0.45,2.83,1.23,3.99,2.37l-0.72,0.4c-0.85,0.31-1.7,0.45-2.55,0.41c-0.57-0.02-1.1-0.14-1.58-0.34
		c-0.34-0.13-0.79-0.41-1.34-0.83l-0.3-0.14c-0.1-0.03-0.18-0.03-0.23,0.01c0.18,2.78-0.23,4.49-1.21,5.12
		c-0.62,0.41-1.4,0.53-2.36,0.38c-0.66-0.1-1.41-0.42-2.27-0.95l-0.36-0.22c-0.16-0.09-0.28-0.11-0.38-0.04
		c-0.04,0.07-0.07,0.18-0.09,0.34l0.12,0.47c0.18,0.77,0.13,1.57-0.15,2.38c-0.28,0.81-0.76,1.44-1.45,1.88l-3.74,2.5l-0.13-0.14
		l-0.97,0.88l-1.29,0.86l0.12,0.2l-6.86,6.22l0.15,0.16l-3.29,3.14l-0.1-0.12l-7.34,7.42c-0.12-0.03-0.24,0.01-0.38,0.12l-0.37,0.51
		c-0.13,0.18-0.27,0.35-0.4,0.52l-0.06,0.07l0.01,0c-0.08,0.11-0.15,0.21-0.23,0.3c-1.43,1.76-2.71,2.7-3.82,2.82
		c-1.08,0.14-1.91,0.04-2.5-0.31c0.12-0.66,0.51-1.39,1.17-2.2c0.94-1.16,1.82-1.75,2.65-1.78l0.5,0.05l0.4-0.07
		c0.05-0.06-0.01-0.19-0.18-0.39l-0.64-0.61c-0.23-0.22-0.52-0.41-0.86-0.55l-1.14-0.48c-0.99-0.43-1.98-0.54-3-0.32
		c-0.9,0.18-1.74,0.75-2.52,1.7c-0.76,0.94-1.25,2.36-1.45,4.26c-0.21,2.04,0.03,3.35,0.73,3.92c1.28,1.04,2.77,1.53,4.47,1.47
		l-4.3,5.29l0.11,0.08l-0.9,1.48c-0.85-0.35-1.59-0.6-2.23-0.77l0-0.19l-0.09,0.15c-2.73-0.86-5.09-1.16-7.1-0.92
		c-1.31,0.16-2.19,0.61-2.64,1.35c-0.43,0.72-0.44,1.74,0,3.07c0.2,0.62,0.43,1.17,0.7,1.64l1.07,1.94l1.13,1.7l0.73,1.03l0.19,0.23
		c0.91,1.21,1.91,2.37,3.02,3.49c1.1,1.12,2.22,2.03,3.37,2.71c0.99,0.6,2.38,0.69,4.15,0.27c1.77-0.43,2.96-1.13,3.55-2.11
		c0.51-0.85,0.78-1.63,0.81-2.35c0.03-0.82-0.07-1.57-0.3-2.25l-0.2-0.56l-0.39-0.9c1.58,1.38,2.37,3.34,2.36,5.86
		c-0.01,2.24-0.36,3.93-1.05,5.06c-0.28,0.46-0.75,1.11-1.4,1.94c-0.66,0.84-1.12,1.48-1.39,1.92c-0.31,0.52-0.33,0.86-0.06,1.02
		c0.21,0.12,0.76-0.02,1.66-0.42l1.71-0.77c2.02-0.9,3.33-1.6,3.94-2.09c0.78-0.62,1.48-1.44,2.11-2.47
		c1.26-2.08,1.03-4.61-0.69-7.57c-0.55-0.95-1.44-2.05-2.65-3.34l1.43-2.35l-0.13-0.08l8.05-9.9l5.48-5.54l0.07,0.07l8.79-8.39
		l-0.08-0.09l4.53-4.11c0.41-0.25,0.87-0.52,1.39-0.83c1.73-1.01,3.07-1.93,4.01-2.76c1.31-1.13,2.12-2.25,2.45-3.38
		c0.73,0.17,1.41,0.19,2.05,0.08c0.58-0.11,1.26-0.41,2.02-0.9c1.49-0.96,2.31-2.12,2.47-3.46l1.79,0.04
		c0.71-0.05,1.28-0.21,1.7-0.48l4.51-2.92l-0.13-0.2l5.8-2.82l7.08-2.83l0.03,0.07l12.75-5.09l-1.57-4.47L155.93,46.95z"/>
	<path class="st1" d="M33.28,346.93l0.39,3.13l3.11-0.38l-0.42-3.08L33.28,346.93z"/>
	<path class="st1" d="M33.22,346.91l0,0.04l0.05-0.01l0-0.03L33.22,346.91z"/>
	<path class="st1" d="M29.81,344.08l0.29,3.12l3.12-0.29l-0.29-3.14L29.81,344.08z"/>
	<path class="st1" d="M73.39,347.01c-1.24-1.04-2.65-1.62-4.24-1.74c-1.59-0.12-3.05,0.26-4.39,1.13c-0.33,0.21-0.61,0.46-0.85,0.74
		c-0.81,0.97-1.06,2.36-0.73,4.18c-0.02-0.02-0.04-0.03-0.05-0.01c-0.05,0.07,0.05,0.72,0.3,1.95c0.21,1.04,0.29,1.68,0.25,1.93
		c-2.62-1.64-4.46-3.08-5.52-4.31c-0.52-0.61-1.32-1.9-2.37-3.86c-0.43-0.8-0.87-1.48-1.29-2.05l2.08-1.16l-1.44-1.44
		c-1.62-1.62-2.72-2.52-3.29-2.7c-1.02-0.31-2.35-0.23-3.99,0.24c-0.69,0.17-1.2,0.3-1.54,0.38c-0.51,0.14-0.96,0.41-1.36,0.8
		c-0.55,0.55-0.16,1.92,1.15,4.12c0.86,1.42,1.17,2.24,0.94,2.47c-0.44,0.45-1.89-0.12-4.35-1.7c-2.06-1.32-3.5-2.38-4.31-3.2
		c-1.26-1.25-2.05-2.62-2.39-4.1c-0.39-1.73,0-3.18,1.19-4.37c0.39-0.4,1.56-0.88,3.5-1.43c0.65-0.19,1.04-0.35,1.17-0.48
		c0.07-0.07,0.07-0.14-0.02-0.22c-0.41-0.41-1.31-0.39-2.71,0.05c-1.79,0.56-3.15,1.3-4.05,2.21c-3.45,3.42-3.41,6.88,0.1,10.39
		c0.77,0.77,1.78,1.56,3.04,2.38c2.59,1.68,4.82,2.54,6.7,2.6c0.63,0.02,1.59-0.22,2.89-0.75c1.3-0.52,2.18-1,2.62-1.44
		c0.38-0.39,0.5-0.91,0.35-1.57c-0.79-1.12-1.54-2.03-2.23-2.73c-0.85-1.22-1.16-1.95-0.93-2.18c0.07-0.07,0.16-0.05,0.28,0.04
		c0.15,0.15,0.32,0.25,0.5,0.3c0.69,0.18,1.21,0.46,1.58,0.84l2.27,2.49c-0.09,0.19-0.2,0.4-0.31,0.64
		c-0.61,1.27-0.48,2.73,0.41,4.4c0.75,1.4,1.76,2.57,3.02,3.5c1.19,0.87,1.8,1.32,1.84,1.35c2.21,1.26,4.3,2.33,6.25,3.21
		c2.68,1.21,4.29,1.89,4.82,2.02c1.86,0.42,3.36-0.09,4.5-1.52l-1.98-0.98c-0.75-0.37-1.29-0.79-1.62-1.27
		c-0.77-1.09-1.29-2.28-1.58-3.58c-0.35-1.61-0.12-2.82,0.7-3.64c0.89-0.88,2.06-0.71,3.52,0.5c0.88,0.75,1.84,1.94,2.89,3.59
		c0.88-2.24,0.68-4.02-0.57-5.36C73.92,347.48,73.68,347.25,73.39,347.01z"/>
	<path class="st1" d="M119.49,373.41l-1.46-3.82l-3.72,1.25l1.24,3.89L119.49,373.41z"/>
	<path class="st1" d="M113.39,370.76l-1.43-3.73l-3.69,1.25l1.21,3.8L113.39,370.76z"/>
	<path class="st1" d="M93.75,376.55c-0.37-0.22-0.81-0.73-1.32-1.54c-0.6-0.95-1.19-1.97-1.77-3.05c-0.29-0.54-0.33-0.98-0.12-1.34
		c0.19-0.32,0.62-0.56,1.28-0.72c1.62-0.39,2.81-0.36,3.59,0.12c0.69,0.41,0.84,1.43,0.45,3.05c-0.12,0.5-0.32,1.13-0.59,1.89
		c-0.12-0.02-0.21,0.05-0.29,0.2c-0.09,0.19-0.15,0.51-0.17,0.96c-0.02,0.05-0.04,0.1-0.07,0.16
		C94.46,376.7,94.14,376.79,93.75,376.55z M134.04,387.61l-2.32-1.9c-0.83-0.68-1.48-1.23-1.94-1.65c-0.42-0.27-0.85-0.49-1.29-0.66
		c-3.09-1.18-5.26-0.16-6.5,3.07l-0.45,1.18c1.07-1.17,2.61-1.37,4.61-0.6c0.68,0.26,1.42,0.62,2.23,1.09l0.62,0.52
		c0.38,0.3,0.66,0.51,0.84,0.62c0.71,0.67,1,0.97,0.84,0.91c-4.7,0.83-7.73,0.92-9.11,0.29c-1.8-0.82-3.69-1.89-5.64-3.23
		c-0.5-0.34-1.27-0.88-2.27-1.61c0.09-0.19,0.17-0.38,0.27-0.59c0.57-1.25,1-2.18,1.31-2.8c1.04-2.12,0.6-3.82-1.31-5.1
		c-1.61,0.77-2.45,1.22-2.52,1.36c-0.02,0.04-0.02,0.05,0,0.06c0.18,0.09,0.07,0.53-0.31,1.32l0.38,1.29
		c0.34,1.14,0.33,2.08-0.03,2.83c0,0,0,0,0,0.01c-0.25-0.18-0.51-0.38-0.78-0.58c0.03,0.46,0.07,0.94,0.11,1.41
		c-0.21,0.11-0.43,0.12-0.66,0.01c-0.5-0.25-1.25-0.59-2.27-1.02c-1.02-0.45-1.77-0.79-2.28-1.03c-3.1-1.51-5.62-3.17-7.58-4.97
		c0.42-0.54,0.77-1.06,1.03-1.56c0.41-0.75,0.69-1.74,0.83-2.97c0.27-2.3,0.42-3.55,0.44-3.75c0.19-1.69-0.11-2.78-0.9-3.25
		c-1.59-0.95-4.43-0.22-8.55,2.19l-3.29,1.93c-1.46,0.67-2.63,0.73-3.52,0.2c-0.16-0.09-0.29-0.19-0.41-0.28l-2.85-2.17
		c-0.79-0.61-1.6-1.41-2.42-2.41c-0.03-0.04-0.07-0.08-0.1-0.12c0.21-0.04,0.38-0.04,0.46,0.02l0.42,0.26
		c0.21-0.28,0.45-0.81,0.74-1.61c0.29-0.79,0.55-1.36,0.81-1.7l4-5.31c0.35-0.46,0.91-1.09,1.7-1.91c0.79-0.81,1.36-1.45,1.7-1.91
		c0.21-0.28,0.43-0.68,0.64-1.18c0.29-0.63,0.48-1.03,0.57-1.21l-4.87-0.77c-0.06,0.16-0.1,0.52-0.12,1.08
		c-0.02,0.42-0.14,0.78-0.38,1.1c-0.24,0.31-0.59,0.82-1.05,1.51c-0.46,0.69-0.82,1.2-1.06,1.53c-0.15,0.2-0.34,0.5-0.57,0.93
		c-0.23,0.42-0.42,0.73-0.57,0.93l-1.2,1.59c-0.37,0.38-0.68,0.74-0.94,1.08c-0.18,0.23-0.42,0.6-0.72,1.09
		c-0.55,0.82-0.84,1.27-0.88,1.37c-0.1,0.21-0.19,0.54-0.27,0.99c-0.12-0.16-0.24-0.34-0.36-0.51c-0.11-0.08-0.22-0.02-0.34,0.17
		c-0.11,0.18-0.2,0.43-0.29,0.78c-0.2,0.75-0.09,2,0.34,3.75c0.82,1.59,1.52,2.72,2.11,3.4c0.07,0.08,0.48,0.36,1.25,0.84
		c0.85,0.53,1.79,1.06,2.79,1.59c2.73,1.43,4.27,1.88,4.58,1.35c0.11-0.18,0.21-0.25,0.29-0.2c0.13,0.07,0.22,0.45,0.29,1.11
		c0.09,0.82,0.74,1.59,1.95,2.32c0.4,0.24,0.84,0.47,1.34,0.69c1.76,0.79,3.22,1.15,4.4,1.09c0.2-0.02,0.35-0.03,0.46-0.04
		c0.09,0.16,0.19,0.33,0.3,0.48l1.28,1.61c0.85,1.08,1.84,1.89,2.97,2.44l6.49,3.16c0.62,0.3,1.09,0.49,1.41,0.55
		c0.7,0.14,1.14,0.23,1.32,0.29c0.97,0.29,1.74,0.36,2.31,0.25c0.21,0.3,0.45,0.63,0.76,1.01c0.7,0.84,1.26,1.37,1.69,1.59
		l0.52,0.25c1.2,0.59,2.68,1.25,4.43,1.96c1.27,0.53,2.35,0.83,3.25,0.93c1.86,0.2,4.54,0.26,8.02,0.16c3.7-0.11,6.38-0.1,8.05,0.01
		l1.91-3.19c-2.65-1.47-4.07-2.27-4.25-2.38C135.27,388.54,134.62,388.1,134.04,387.61L134.04,387.61z"/>
	<path class="st1" d="M124.08,401.25l2.71,3.14l3.12-2.68l-2.8-2.83L124.08,401.25z"/>
	<path class="st1" d="M145.26,382.01c0.14,0.4,0.15,0.79,0.05,1.17c-0.1,0.38-0.24,0.98-0.41,1.8c-0.17,0.82-0.31,1.43-0.42,1.82
		c-0.06,0.23-0.12,0.6-0.17,1.09c-0.05,0.48-0.11,0.84-0.17,1.08l-0.52,1.94c-0.2,0.49-0.36,0.95-0.46,1.36
		c-0.08,0.29-0.18,0.71-0.32,1.27c-0.21,0.98-0.31,1.52-0.3,1.62c-0.02,0.33,0.07,0.92,0.28,1.74c0.31,1.23,0.47,2,0.49,2.31
		c1.05-1.25,1.75-1.86,2.08-1.8l0.49,0.08c0.09-0.34,0.11-0.93,0.06-1.78s-0.01-1.48,0.1-1.89l1.73-6.46
		c0.15-0.57,0.45-1.37,0.89-2.42s0.74-1.86,0.89-2.42c0.09-0.33,0.14-0.78,0.16-1.35c0.03-0.69,0.06-1.13,0.07-1.34l-4.81,1.12
		C144.98,381.13,145.08,381.48,145.26,382.01z"/>
	<path class="st1" d="M173.04,418.62l0.02,0.03l0.04-0.03l-0.03-0.03L173.04,418.62z"/>
	<path class="st1" d="M168.6,418.5l2.16,2.3l2.28-2.18l-2.15-2.31L168.6,418.5z"/>
	<path class="st1" d="M173.1,418.62l2.24,2.21l2.23-2.23l-2.19-2.17L173.1,418.62z"/>
	<path class="st1" d="M208.19,389.23l-3.37-0.8l-0.27,3.08l3.42,0.81L208.19,389.23z"/>
	<path class="st1" d="M203.69,399.17c0.64-0.75,1.05-1.21,1.23-1.41c0.47-0.5,1.01-0.75,1.62-0.74c1.64,1.73,2.66,3.42,3.08,5.07
		C207.16,401.7,205.18,400.73,203.69,399.17z M207.56,394.44c-0.35,0-0.72,0.04-1.12,0.13c-0.21,0.04-0.66,0.38-1.33,1.01
		c-1.62,1.51-2.71,3.04-3.24,4.57c-0.09,0.25-0.14,0.47-0.14,0.69c-0.01,0.48,0.19,0.86,0.59,1.14c0,0.39,0.7,1.05,2.12,1.96
		c1.06,0.68,2,1.21,2.84,1.6c-0.31,0.69-2.34,1-6.1,0.93c-3.69-0.06-6.79-0.44-9.28-1.11c-0.34-0.09-1.18-0.44-2.5-1.07
		c-0.29-0.13-0.54-0.25-0.78-0.35l0.91-2.16l-2.02-0.25c-2.28-0.28-3.7-0.31-4.26-0.1c-1,0.38-2,1.26-3,2.65
		c-0.44,0.56-0.76,0.98-0.98,1.25c-0.32,0.43-0.52,0.92-0.58,1.47c-0.1,0.77,1.05,1.61,3.44,2.54c1.54,0.59,2.3,1.05,2.26,1.37
		c-0.08,0.62-1.57,1.07-4.48,1.34c-2.44,0.23-4.23,0.28-5.37,0.14c-1.77-0.21-3.24-0.8-4.42-1.76c-1.38-1.12-1.96-2.51-1.76-4.17
		c0.07-0.56,0.7-1.65,1.9-3.28c0.4-0.55,0.61-0.91,0.63-1.09c0.01-0.1-0.04-0.15-0.15-0.17c-0.57-0.07-1.28,0.5-2.11,1.71
		c-1.07,1.55-1.68,2.97-1.84,4.25c-0.61,4.82,1.55,7.54,6.47,8.14c1.08,0.13,2.36,0.13,3.86,0c3.07-0.27,5.36-0.96,6.88-2.08
		c0.51-0.37,1.11-1.16,1.82-2.38c0.7-1.21,1.1-2.13,1.17-2.75c0.07-0.54-0.16-1.03-0.69-1.46c-1.31-0.39-2.45-0.65-3.43-0.77
		c-1.42-0.44-2.11-0.82-2.07-1.15c0.01-0.1,0.09-0.14,0.24-0.14c0.21,0.02,0.41,0,0.58-0.08c0.65-0.29,1.23-0.39,1.76-0.31
		l3.99,0.66c0.1,0.29,0.22,0.59,0.38,0.86c0.32,0.54,0.96,1.26,1.92,2.18c0.23,0.04,0.55,0.2,0.96,0.47
		c0.42,0.28,0.74,0.43,0.97,0.45c2.35,0.29,5.45,0.55,9.29,0.78c0.38,0.02,0.9,0.04,1.58,0.05c1.54,0.03,3.19-0.16,4.98-0.55
		c2.54-0.57,3.89-1.36,4.07-2.4c0.25-1.46,0.39-2.63,0.41-3.5c0.03-1.88-0.28-3.85-0.93-5.92
		C210.31,395.58,209.16,394.47,207.56,394.44z"/>
	<path class="st1" d="M231.84,389.59l-0.13-3.12l-3.1-0.39l0.11,3.11L231.84,389.59z"/>
	<path class="st1" d="M237.07,389.39l-0.19-3.11l-3.45-0.38l0.12,3.1L237.07,389.39z"/>
	<path class="st1" d="M252.91,385.51l-3.41-2.05l-2.14,3.26l3.29,2.24L252.91,385.51z"/>
	<path class="st1" d="M233.62,396.69c0.55-0.82,0.9-1.34,1.06-1.55c0.4-0.55,0.91-0.87,1.52-0.93c1.83,1.52,3.05,3.07,3.67,4.66
		C237.38,398.78,235.29,398.06,233.62,396.69z M262.13,396.45c-0.33-1.33-0.56-2.33-0.71-3.01c-0.49-2.3-1.88-3.38-4.16-3.21
		c-0.79,1.59-1.18,2.46-1.14,2.62c0,0.04,0.02,0.05,0.03,0.05c0.18-0.04,0.37,0.37,0.55,1.22l1.11,0.78
		c0.98,0.69,1.55,1.43,1.72,2.25c0.18,0.88,0.01,1.37-0.53,1.48s-1.35,0.31-2.41,0.59c-1.07,0.28-1.88,0.48-2.43,0.59
		c-4.61,0.98-8.54,1.08-11.8,0.33c-0.2-1.85-0.75-3.75-1.64-5.7c-0.97-2.11-2.25-3.08-3.84-2.91c-0.34,0.04-0.71,0.12-1.09,0.27
		c-0.21,0.07-0.61,0.46-1.19,1.17c-1.43,1.71-2.32,3.37-2.66,4.96c-0.05,0.26-0.07,0.49-0.05,0.71c0.05,0.48,0.29,0.83,0.73,1.07
		c0.08,0.77,1.86,1.76,5.33,2.95c-0.21,0.7-2.19,1.24-5.95,1.59c-3.54,0.36-6.65,0.38-9.32,0.08c-0.29-0.03-0.8-0.16-1.51-0.4
		c-0.09-0.29-0.21-0.65-0.38-1.08c-0.32-0.79-0.49-1.39-0.52-1.82l-0.47-6.66c-0.04-0.57-0.02-1.43,0.05-2.57s0.09-1.99,0.05-2.57
		c-0.03-0.34-0.12-0.79-0.29-1.32c-0.2-0.66-0.32-1.09-0.37-1.29l-4.18,2.62c0.06,0.16,0.27,0.46,0.63,0.89
		c0.27,0.33,0.41,0.7,0.44,1.09c0.03,0.39,0.1,1,0.2,1.83c0.11,0.83,0.18,1.45,0.2,1.86c0.02,0.25,0.07,0.61,0.17,1.08
		c0.1,0.47,0.15,0.84,0.17,1.08l0.14,2c-0.03,0.53-0.03,1.01,0,1.43c0.02,0.3,0.07,0.73,0.16,1.31c0.12,0.98,0.2,1.52,0.23,1.61
		c0.09,0.33,0.36,0.85,0.82,1.56c0,0,0.01,0.01,0.01,0.02c0.12,0.23,0.26,0.45,0.42,0.66c0,0,0,0,0,0c0.42,0.67,0.68,1.12,0.77,1.34
		c0.05-0.14,0.11-0.27,0.16-0.4c0.34,0.3,0.75,0.63,1.24,1c0.23,0.01,0.57,0.12,1,0.36c0.44,0.23,0.78,0.34,1.03,0.33
		c2.74-0.07,5.84-0.2,9.31-0.4c0.7-0.04,1.29-0.08,1.75-0.13c1.49-0.15,3.09-0.54,4.8-1.15c2.38-0.85,3.6-1.8,3.65-2.85
		c0.03-0.55,0.04-1.04,0.05-1.5c0.83,0.89,1.66,1.43,2.5,1.63l2,0.48c1.34,0.32,2.61,0.35,3.84,0.09l7.06-1.5
		c0.68-0.14,1.16-0.29,1.45-0.44c0.64-0.32,1.04-0.52,1.21-0.59c1.76-0.69,2.53-1.52,2.33-2.47
		C262.69,398.79,262.46,397.79,262.13,396.45z"/>
	<path class="st1" d="M254.86,379.69l-3.48-2.1l-2.16,3.27l3.36,2.29L254.86,379.69z"/>
	<path class="st1" d="M257.05,387.29l2.28-3.45l-3.5-2.11l-2.15,3.27L257.05,387.29z"/>
	<path class="st1" d="M296.59,400.89l3.09,0.76l0.77-3.08l-3-0.73L296.59,400.89z"/>
	<path class="st1" d="M292.69,403.11l3.05,0.88l0.84-3.07l-3.05-0.88L292.69,403.11z"/>
	<path class="st1" d="M296.58,400.91l0.01,0l0-0.02l-0.01,0L296.58,400.91z"/>
	<path class="st1" d="M324.17,367.35c-0.38,0.46-1.05,1.04-2.01,1.71l-1.65,1.19c-0.57,0.37-1.08,0.7-1.54,0.99l-3.8,2.47
		c0.67-4.12,1.95-6.8,3.86-8.05c0.84-0.55,1.79-0.75,2.83-0.59c1.04,0.15,1.84,0.64,2.38,1.48
		C324.42,366.83,324.39,367.09,324.17,367.35z M322.33,360.38c-1.17-0.18-2.29,0.08-3.35,0.77c-2.73,1.77-4.41,5.93-5.02,12.48
		l-2.75,1.79c-0.8-1.23-2.5-2.44-5.11-3.62l-0.13,3.6c1.71,0.73,2.69,1.17,2.93,1.33c0.08,0.06,0.15,0.12,0.21,0.18
		c0.04,0.07,0.02,0.12-0.09,0.14c-0.71,0.6-1.41,1.13-2.1,1.58c-1.53,0.99-3.04,1.62-4.51,1.89l-0.36-2.52l-1.87,0.84
		c-2.11,0.94-3.36,1.65-3.73,2.12c-0.67,0.84-1.07,2.11-1.23,3.81c-0.09,0.7-0.16,1.23-0.2,1.57c-0.05,0.53,0.03,1.05,0.26,1.55
		c0.31,0.71,1.75,0.83,4.3,0.38c1.64-0.3,2.53-0.3,2.67,0c0.25,0.57-0.79,1.73-3.14,3.45c-1.96,1.45-3.47,2.41-4.52,2.88
		c-1.62,0.72-3.19,0.98-4.69,0.76c-1.75-0.25-2.96-1.14-3.65-2.68c-0.23-0.51-0.25-1.78-0.09-3.79c0.05-0.67,0.04-1.09-0.03-1.25
		c-0.04-0.09-0.11-0.11-0.22-0.07c-0.53,0.23-0.83,1.09-0.92,2.56c-0.12,1.88,0.09,3.41,0.61,4.59c1.97,4.45,5.21,5.67,9.74,3.66
		c0.99-0.44,2.09-1.11,3.3-1.99c2.49-1.81,4.1-3.58,4.82-5.31c0.25-0.58,0.36-1.57,0.34-2.97s-0.16-2.39-0.41-2.96
		c-0.22-0.49-0.67-0.79-1.34-0.89c-1.32,0.34-2.43,0.71-3.34,1.11c-1.44,0.36-2.23,0.38-2.36,0.08c-0.04-0.09,0.01-0.18,0.13-0.25
		c0.2-0.09,0.35-0.21,0.46-0.36c0.41-0.58,0.86-0.97,1.35-1.17l1.65-0.65c1.75,1.92,4.8,1.48,9.16-1.35
		c0.47-0.31,0.95-0.64,1.43-1.03c0.57-0.27,1.15-1.07,1.74-2.41l0.01,0.02c0.95,0.26,2.1,0,3.45-0.77l2.14-1.29
		c2.11-1.23,4.24-2.97,6.4-5.22c1.05-1.1,1.67-2.51,1.85-4.23c0.18-1.73-0.15-3.23-0.98-4.51
		C324.44,361.18,323.5,360.56,322.33,360.38z"/>
	<path class="st1" d="M312.02,365.41c0.07-0.3,0.14-0.64,0.23-1.04c0.09-0.39,0.14-0.64,0.17-0.76c-0.87-0.13-2.04-0.33-3.5-0.6
		c-0.46,1.89-0.71,3.02-0.76,3.38c0.95,0.26,2.1,0.54,3.46,0.82L312.02,365.41z"/>
	<path class="st1" d="M334.55,358.91c-0.21-0.27-0.67-0.65-1.38-1.12c-0.7-0.48-1.18-0.88-1.45-1.22l-4.11-5.27
		c-0.36-0.45-0.82-1.17-1.4-2.15c-0.57-0.98-1.04-1.7-1.39-2.16c-0.21-0.27-0.54-0.58-0.98-0.93c-0.53-0.44-0.87-0.73-1.02-0.87
		l-2,4.52c0.14,0.09,0.48,0.23,1.02,0.39c0.4,0.12,0.73,0.34,0.97,0.66c0.24,0.31,0.64,0.78,1.19,1.41c0.55,0.62,0.95,1.1,1.2,1.43
		c0.16,0.2,0.4,0.46,0.75,0.8c0.35,0.34,0.6,0.6,0.75,0.8l1.23,1.58c0.27,0.46,0.54,0.85,0.8,1.19c0.18,0.23,0.45,0.58,0.81,1.03
		c0.65,0.75,1.02,1.15,1.1,1.21c0.25,0.22,0.78,0.5,1.56,0.82c1.17,0.48,1.88,0.82,2.14,0.99c-0.36-1.6-0.42-2.52-0.18-2.75
		L334.55,358.91z"/>
	<path class="st1" d="M350.92,357.16l4.03,0.17l0.11-4.16l-4.04,0.09L350.92,357.16z"/>
	<path class="st1" d="M352.84,348.87c0.37-0.61,0.61-0.99,0.72-1.14c1.12-1.52,1.34-2.63,0.67-3.33c-0.48-0.5-1.21-1.22-2.21-2.18
		c-0.99-0.95-1.72-1.68-2.2-2.18c-1.64-1.7-3.38-1.88-5.23-0.54c0.17,1.77,0.31,2.71,0.43,2.82c0.02,0.03,0.04,0.03,0.05,0.02
		c0.14-0.14,0.52,0.11,1.12,0.74l1.35,0.07c1.19,0.07,2.07,0.41,2.64,1c0.62,0.64,0.73,1.16,0.33,1.54s-0.98,0.98-1.73,1.78
		c-0.76,0.8-1.34,1.4-1.75,1.79c-3.57,3.45-7.01,5.68-10.33,6.71c-0.25,0.08-0.41,0.16-0.5,0.24c-0.13,0.12-0.12,0.27,0.03,0.42
		c0.21,0.21,0.67,0.45,1.39,0.69c1.52,0.53,2.77,0.63,3.76,0.3l1.95-0.65c1.3-0.43,2.41-1.08,3.31-1.95l5.19-5.02
		C352.34,349.53,352.67,349.15,352.84,348.87z"/>
	<path class="st1" d="M355.19,352.81l4.04,0.16l0.09-4.14l-4.04,0.07L355.19,352.81z"/>
	<path class="st1" d="M369.84,328.72c-0.3-0.55-0.71-1.26-1.23-2.12c-1.8-0.75-3.26-1.23-4.39-1.42c-1.94-0.34-3.48-0.6-4.63-0.77
		l1.95,4.04c2.63-0.25,4.48,0.12,5.55,1.12c0.39,0.36,0.68,0.8,0.87,1.32c0.72,1.98,1.2,4.67,1.45,8.05
		c-0.15,0.24-0.42,1.19-0.79,2.85c-0.11,0.48-0.33,0.89-0.66,1.24c-0.88,0.95-2.55,1.54-5.03,1.77c2.17,0.88,3.56,1.34,4.15,1.37
		c0.91,0.07,2.26-0.34,4.05-1.22C374.4,341.71,373.96,336.31,369.84,328.72z"/>
</g>
</svg>
